<mxfile host="app.diagrams.net" modified="2021-03-22T16:12:07.655Z" agent="5.0 (Windows NT 10.0; Win64; x64) AppleWebKit/537.36 (KHTML, like Gecko) Chrome/89.0.4389.90 Safari/537.36" etag="8IGfsmnKWgbTc-X2OQck" version="14.4.9" type="github">
  <diagram id="yRg1UP4xa1xqMPupIc46" name="Page-1">
    <mxGraphModel dx="1422" dy="1921" grid="1" gridSize="10" guides="1" tooltips="1" connect="1" arrows="1" fold="1" page="1" pageScale="1" pageWidth="827" pageHeight="1169" math="0" shadow="0">
      <root>
        <mxCell id="0" />
        <mxCell id="1" parent="0" />
        <mxCell id="rOnjO1lMuaPUB-ESm6rX-14" style="edgeStyle=orthogonalEdgeStyle;rounded=0;orthogonalLoop=1;jettySize=auto;html=1;exitX=0.5;exitY=0.5;exitDx=0;exitDy=0;exitPerimeter=0;entryX=0;entryY=0.5;entryDx=0;entryDy=0;" parent="1" source="rOnjO1lMuaPUB-ESm6rX-1" target="rOnjO1lMuaPUB-ESm6rX-6" edge="1">
          <mxGeometry relative="1" as="geometry" />
        </mxCell>
        <mxCell id="rOnjO1lMuaPUB-ESm6rX-1" value="client" style="shape=umlActor;verticalLabelPosition=bottom;verticalAlign=top;html=1;outlineConnect=0;" parent="1" vertex="1">
          <mxGeometry x="40" y="-660" width="30" height="60" as="geometry" />
        </mxCell>
        <mxCell id="rOnjO1lMuaPUB-ESm6rX-15" style="edgeStyle=orthogonalEdgeStyle;rounded=0;orthogonalLoop=1;jettySize=auto;html=1;exitX=0.5;exitY=0.5;exitDx=0;exitDy=0;exitPerimeter=0;entryX=0.5;entryY=1;entryDx=0;entryDy=0;" parent="1" source="rOnjO1lMuaPUB-ESm6rX-2" target="rOnjO1lMuaPUB-ESm6rX-11" edge="1">
          <mxGeometry relative="1" as="geometry">
            <mxPoint x="640" y="-670" as="targetPoint" />
          </mxGeometry>
        </mxCell>
        <mxCell id="rOnjO1lMuaPUB-ESm6rX-16" style="edgeStyle=orthogonalEdgeStyle;rounded=0;orthogonalLoop=1;jettySize=auto;html=1;entryX=0.5;entryY=0;entryDx=0;entryDy=0;" parent="1" source="rOnjO1lMuaPUB-ESm6rX-2" target="rOnjO1lMuaPUB-ESm6rX-13" edge="1">
          <mxGeometry relative="1" as="geometry">
            <Array as="points">
              <mxPoint x="680" y="-540" />
              <mxPoint x="680" y="-480" />
              <mxPoint x="600" y="-480" />
            </Array>
            <mxPoint x="650" y="-490" as="targetPoint" />
          </mxGeometry>
        </mxCell>
        <mxCell id="rOnjO1lMuaPUB-ESm6rX-19" style="edgeStyle=orthogonalEdgeStyle;rounded=0;orthogonalLoop=1;jettySize=auto;html=1;exitX=0.5;exitY=0.5;exitDx=0;exitDy=0;exitPerimeter=0;entryX=1.017;entryY=0.617;entryDx=0;entryDy=0;entryPerimeter=0;" parent="1" source="rOnjO1lMuaPUB-ESm6rX-2" target="rOnjO1lMuaPUB-ESm6rX-8" edge="1">
          <mxGeometry relative="1" as="geometry">
            <mxPoint x="470" y="-620" as="targetPoint" />
            <Array as="points">
              <mxPoint x="745" y="-560" />
              <mxPoint x="610" y="-560" />
              <mxPoint x="610" y="-600" />
              <mxPoint x="510" y="-600" />
              <mxPoint x="510" y="-443" />
            </Array>
          </mxGeometry>
        </mxCell>
        <mxCell id="rOnjO1lMuaPUB-ESm6rX-2" value="pizzaiolo" style="shape=umlActor;verticalLabelPosition=bottom;verticalAlign=top;html=1;outlineConnect=0;" parent="1" vertex="1">
          <mxGeometry x="730" y="-600" width="30" height="60" as="geometry" />
        </mxCell>
        <mxCell id="rOnjO1lMuaPUB-ESm6rX-21" style="edgeStyle=orthogonalEdgeStyle;rounded=0;orthogonalLoop=1;jettySize=auto;html=1;exitX=0.5;exitY=0.5;exitDx=0;exitDy=0;exitPerimeter=0;" parent="1" source="rOnjO1lMuaPUB-ESm6rX-3" target="rOnjO1lMuaPUB-ESm6rX-8" edge="1">
          <mxGeometry relative="1" as="geometry">
            <Array as="points">
              <mxPoint x="445" y="-350" />
              <mxPoint x="380" y="-350" />
            </Array>
            <mxPoint x="400" y="-590" as="targetPoint" />
          </mxGeometry>
        </mxCell>
        <mxCell id="rOnjO1lMuaPUB-ESm6rX-3" value="livreur" style="shape=umlActor;verticalLabelPosition=bottom;verticalAlign=top;html=1;outlineConnect=0;" parent="1" vertex="1">
          <mxGeometry x="430" y="-340" width="30" height="60" as="geometry" />
        </mxCell>
        <mxCell id="rOnjO1lMuaPUB-ESm6rX-6" value="commander en ligne" style="rounded=0;whiteSpace=wrap;html=1;" parent="1" vertex="1">
          <mxGeometry x="170" y="-590" width="120" height="60" as="geometry" />
        </mxCell>
        <mxCell id="sv61woM9R54SMoTvepIi-1" value="&amp;lt;&amp;lt;extend&amp;gt;&amp;gt;" style="edgeStyle=orthogonalEdgeStyle;rounded=0;orthogonalLoop=1;jettySize=auto;html=1;exitX=0.75;exitY=0;exitDx=0;exitDy=0;entryX=0.425;entryY=1.033;entryDx=0;entryDy=0;entryPerimeter=0;" parent="1" source="rOnjO1lMuaPUB-ESm6rX-7" target="rOnjO1lMuaPUB-ESm6rX-6" edge="1">
          <mxGeometry relative="1" as="geometry" />
        </mxCell>
        <mxCell id="rOnjO1lMuaPUB-ESm6rX-7" value="payer en ligne" style="rounded=0;whiteSpace=wrap;html=1;" parent="1" vertex="1">
          <mxGeometry x="110" y="-490" width="120" height="60" as="geometry" />
        </mxCell>
        <mxCell id="sv61woM9R54SMoTvepIi-4" value="&amp;lt;&amp;lt;extend&amp;gt;&amp;gt;" style="edgeStyle=orthogonalEdgeStyle;rounded=0;orthogonalLoop=1;jettySize=auto;html=1;exitX=0;exitY=0.5;exitDx=0;exitDy=0;entryX=1;entryY=0.5;entryDx=0;entryDy=0;" parent="1" source="rOnjO1lMuaPUB-ESm6rX-8" target="rOnjO1lMuaPUB-ESm6rX-6" edge="1">
          <mxGeometry relative="1" as="geometry" />
        </mxCell>
        <mxCell id="rOnjO1lMuaPUB-ESm6rX-8" value="modifier ou annuler la commande" style="rounded=0;whiteSpace=wrap;html=1;" parent="1" vertex="1">
          <mxGeometry x="330" y="-480" width="120" height="60" as="geometry" />
        </mxCell>
        <mxCell id="sv61woM9R54SMoTvepIi-3" value="&amp;lt;&amp;lt;extend&amp;gt;&amp;gt;" style="edgeStyle=orthogonalEdgeStyle;rounded=0;orthogonalLoop=1;jettySize=auto;html=1;exitX=0.5;exitY=1;exitDx=0;exitDy=0;entryX=0.5;entryY=0;entryDx=0;entryDy=0;" parent="1" source="rOnjO1lMuaPUB-ESm6rX-9" target="rOnjO1lMuaPUB-ESm6rX-6" edge="1">
          <mxGeometry relative="1" as="geometry" />
        </mxCell>
        <mxCell id="rOnjO1lMuaPUB-ESm6rX-9" value="suivre la commande en temps réel" style="rounded=0;whiteSpace=wrap;html=1;" parent="1" vertex="1">
          <mxGeometry x="280" y="-820" width="120" height="60" as="geometry" />
        </mxCell>
        <mxCell id="rOnjO1lMuaPUB-ESm6rX-11" value="suivre le stock d&#39;ingrédient" style="rounded=0;whiteSpace=wrap;html=1;" parent="1" vertex="1">
          <mxGeometry x="580" y="-740" width="120" height="60" as="geometry" />
        </mxCell>
        <mxCell id="rOnjO1lMuaPUB-ESm6rX-13" value="regarder les recettes" style="rounded=0;whiteSpace=wrap;html=1;" parent="1" vertex="1">
          <mxGeometry x="540" y="-430" width="120" height="60" as="geometry" />
        </mxCell>
        <mxCell id="X4SJwdlUsnIwIIhZaPPj-3" style="edgeStyle=orthogonalEdgeStyle;rounded=0;orthogonalLoop=1;jettySize=auto;html=1;exitX=0.5;exitY=0.5;exitDx=0;exitDy=0;exitPerimeter=0;" parent="1" source="X4SJwdlUsnIwIIhZaPPj-1" target="X4SJwdlUsnIwIIhZaPPj-2" edge="1">
          <mxGeometry relative="1" as="geometry">
            <mxPoint x="130" y="-870" as="targetPoint" />
          </mxGeometry>
        </mxCell>
        <mxCell id="X4SJwdlUsnIwIIhZaPPj-1" value="visiteur" style="shape=umlActor;verticalLabelPosition=bottom;verticalAlign=top;html=1;outlineConnect=0;" parent="1" vertex="1">
          <mxGeometry x="40" y="-890" width="30" height="60" as="geometry" />
        </mxCell>
        <mxCell id="X4SJwdlUsnIwIIhZaPPj-4" style="edgeStyle=orthogonalEdgeStyle;rounded=0;orthogonalLoop=1;jettySize=auto;html=1;exitX=0.5;exitY=1;exitDx=0;exitDy=0;entryX=0.117;entryY=-0.083;entryDx=0;entryDy=0;entryPerimeter=0;" parent="1" source="X4SJwdlUsnIwIIhZaPPj-2" target="rOnjO1lMuaPUB-ESm6rX-6" edge="1">
          <mxGeometry relative="1" as="geometry" />
        </mxCell>
        <mxCell id="X4SJwdlUsnIwIIhZaPPj-5" value="&amp;lt;&amp;lt;extend&amp;gt;&amp;gt;" style="edgeLabel;html=1;align=center;verticalAlign=middle;resizable=0;points=[];" parent="X4SJwdlUsnIwIIhZaPPj-4" vertex="1" connectable="0">
          <mxGeometry x="-0.29" y="-3" relative="1" as="geometry">
            <mxPoint as="offset" />
          </mxGeometry>
        </mxCell>
        <mxCell id="X4SJwdlUsnIwIIhZaPPj-2" value="consulter la carte" style="rounded=0;whiteSpace=wrap;html=1;" parent="1" vertex="1">
          <mxGeometry x="110" y="-810" width="120" height="60" as="geometry" />
        </mxCell>
        <mxCell id="X4SJwdlUsnIwIIhZaPPj-14" style="edgeStyle=orthogonalEdgeStyle;rounded=0;orthogonalLoop=1;jettySize=auto;html=1;exitX=0.5;exitY=0.5;exitDx=0;exitDy=0;exitPerimeter=0;entryX=0.375;entryY=0.167;entryDx=0;entryDy=0;entryPerimeter=0;" parent="1" source="X4SJwdlUsnIwIIhZaPPj-11" target="rOnjO1lMuaPUB-ESm6rX-11" edge="1">
          <mxGeometry relative="1" as="geometry" />
        </mxCell>
        <mxCell id="X4SJwdlUsnIwIIhZaPPj-16" style="edgeStyle=orthogonalEdgeStyle;rounded=0;orthogonalLoop=1;jettySize=auto;html=1;exitX=0;exitY=1;exitDx=0;exitDy=0;exitPerimeter=0;entryX=0.5;entryY=0;entryDx=0;entryDy=0;" parent="1" source="X4SJwdlUsnIwIIhZaPPj-11" target="X4SJwdlUsnIwIIhZaPPj-15" edge="1">
          <mxGeometry relative="1" as="geometry" />
        </mxCell>
        <mxCell id="BBnPieAt4En4c9nZPNoD-2" style="edgeStyle=orthogonalEdgeStyle;rounded=0;orthogonalLoop=1;jettySize=auto;html=1;exitX=0.5;exitY=0.5;exitDx=0;exitDy=0;exitPerimeter=0;entryX=1;entryY=0;entryDx=0;entryDy=0;" edge="1" parent="1" source="X4SJwdlUsnIwIIhZaPPj-11" target="BBnPieAt4En4c9nZPNoD-1">
          <mxGeometry relative="1" as="geometry">
            <Array as="points">
              <mxPoint x="630" y="-870" />
              <mxPoint x="630" y="-800" />
              <mxPoint x="570" y="-800" />
              <mxPoint x="570" y="-740" />
            </Array>
          </mxGeometry>
        </mxCell>
        <mxCell id="X4SJwdlUsnIwIIhZaPPj-11" value="responsable" style="shape=umlActor;verticalLabelPosition=bottom;verticalAlign=top;html=1;outlineConnect=0;" parent="1" vertex="1">
          <mxGeometry x="625" y="-900" width="30" height="60" as="geometry" />
        </mxCell>
        <mxCell id="X4SJwdlUsnIwIIhZaPPj-15" value="gérer les commandes" style="rounded=0;whiteSpace=wrap;html=1;" parent="1" vertex="1">
          <mxGeometry x="430" y="-820" width="120" height="60" as="geometry" />
        </mxCell>
        <mxCell id="BBnPieAt4En4c9nZPNoD-1" value="gérer les pizzerias" style="rounded=0;whiteSpace=wrap;html=1;" vertex="1" parent="1">
          <mxGeometry x="430" y="-740" width="120" height="60" as="geometry" />
        </mxCell>
        <mxCell id="BBnPieAt4En4c9nZPNoD-6" style="edgeStyle=orthogonalEdgeStyle;rounded=0;orthogonalLoop=1;jettySize=auto;html=1;exitX=0.5;exitY=1;exitDx=0;exitDy=0;entryX=0.75;entryY=1;entryDx=0;entryDy=0;" edge="1" parent="1" source="BBnPieAt4En4c9nZPNoD-3" target="BBnPieAt4En4c9nZPNoD-4">
          <mxGeometry relative="1" as="geometry" />
        </mxCell>
        <mxCell id="BBnPieAt4En4c9nZPNoD-3" value="creer un compte" style="rounded=0;whiteSpace=wrap;html=1;direction=west;" vertex="1" parent="1">
          <mxGeometry x="350" y="-570" width="120" height="60" as="geometry" />
        </mxCell>
        <mxCell id="BBnPieAt4En4c9nZPNoD-5" style="edgeStyle=orthogonalEdgeStyle;rounded=0;orthogonalLoop=1;jettySize=auto;html=1;exitX=0;exitY=1;exitDx=0;exitDy=0;entryX=1;entryY=0;entryDx=0;entryDy=0;" edge="1" parent="1" source="BBnPieAt4En4c9nZPNoD-4" target="rOnjO1lMuaPUB-ESm6rX-6">
          <mxGeometry relative="1" as="geometry" />
        </mxCell>
        <mxCell id="BBnPieAt4En4c9nZPNoD-4" value="se connecter" style="rounded=0;whiteSpace=wrap;html=1;" vertex="1" parent="1">
          <mxGeometry x="320" y="-650" width="120" height="60" as="geometry" />
        </mxCell>
      </root>
    </mxGraphModel>
  </diagram>
</mxfile>
